<!DOCTYPE svg PUBLIC "-//W3C//DTD SVG 1.1//EN" "http://www.w3.org/Graphics/SVG/1.1/DTD/svg11.dtd">
<!-- Uploaded to: SVG Repo, www.svgrepo.com, Transformed by: SVG Repo Mixer Tools -->
<svg fill="#000000" width="800px" height="800px" viewBox="0 0 24 24" id="filter-alt-3" data-name="Flat Color" xmlns="http://www.w3.org/2000/svg" class="icon flat-color">
<g id="SVGRepo_bgCarrier" stroke-width="0"/>
<g id="SVGRepo_tracerCarrier" stroke-linecap="round" stroke-linejoin="round"/>
<g id="SVGRepo_iconCarrier">
<path id="primary" d="M20.62,3.17A2,2,0,0,0,18.8,2H5.2A2,2,0,0,0,3.7,5.32L9,11.38V21a1,1,0,0,0,.47.85A1,1,0,0,0,10,22a1,1,0,0,0,.45-.11l4-2A1,1,0,0,0,15,19V11.38l5.3-6.06A2,2,0,0,0,20.62,3.17Z" style="fill: #353B5D;"/>
</g>
</svg>